<?xml version="1.0" encoding="UTF-8"?>
<svg width="26px" height="26px" viewBox="0 0 26 26" version="1.1" xmlns="http://www.w3.org/2000/svg" xmlns:xlink="http://www.w3.org/1999/xlink">
    <!-- Generator: Sketch 63 (92445) - https://sketch.com -->
    <title>编组 6</title>
    <desc>Created with Sketch.</desc>
    <g id="页面-1" stroke="none" stroke-width="1" fill="none" fill-rule="evenodd">
        <g id="个人资料" transform="translate(-202.000000, -133.000000)">
            <g id="编组-6" transform="translate(202.000000, 133.000000)">
                <circle id="椭圆形" fill="#000000" opacity="0.495512463" cx="13" cy="13" r="13"></circle>
                <g id="编辑" transform="translate(5.000000, 5.000000)" fill-rule="nonzero">
                    <rect id="矩形" fill="#000000" opacity="0" x="0" y="0" width="16" height="16"></rect>
                    <path d="M13.528125,1.528125 L6.528125,8.528125 C6.2671875,8.7890625 6.26875,9.209375 6.528125,9.4703125 C6.7890625,9.7296875 7.209375,9.73125 7.471875,9.4703125 L14.471875,2.4703125 C14.7328125,2.209375 14.7328125,1.7875 14.471875,1.528125 C14.2109375,1.26875 13.7890625,1.26875 13.528125,1.528125" id="路径" fill="#FFFFFF"></path>
                    <path d="M14.6671875,9.3328125 L14.6671875,12 C14.6671875,13.4734375 13.4734375,14.6671875 12,14.6671875 L4,14.6671875 C2.5265625,14.6671875 1.3328125,13.4734375 1.3328125,12 L1.3328125,4 C1.3328125,2.5265625 2.5265625,1.3328125 4,1.3328125 L6.6671875,1.3328125 C7.0359375,1.3328125 7.334375,1.63125 7.334375,2 C7.334375,2.36875 7.0359375,2.6671875 6.6671875,2.6671875 L4,2.6671875 C3.2640625,2.6671875 2.6671875,3.2640625 2.6671875,4 L2.6671875,12 C2.6671875,12.7359375 3.2640625,13.3328125 4,13.3328125 L12,13.3328125 C12.7359375,13.3328125 13.3328125,12.7359375 13.3328125,12 L13.3328125,9.3328125 C13.3328125,8.9640625 13.63125,8.665625 14,8.665625 C14.36875,8.665625 14.6671875,8.965625 14.6671875,9.3328125 Z" id="路径" fill="#FFFFFF"></path>
                </g>
            </g>
        </g>
    </g>
</svg>