<?xml version="1.0" encoding="UTF-8"?>
<svg width="18px" height="18px" viewBox="0 0 18 18" version="1.1" xmlns="http://www.w3.org/2000/svg" xmlns:xlink="http://www.w3.org/1999/xlink">
    <!-- Generator: Sketch 63 (92445) - https://sketch.com -->
    <title>分享</title>
    <desc>Created with Sketch.</desc>
    <g id="页面-1" stroke="none" stroke-width="1" fill="none" fill-rule="evenodd">
        <g id="图片详情" transform="translate(-25.000000, -779.000000)" fill-rule="nonzero">
            <g id="编组-2备份" transform="translate(25.000000, 779.000000)">
                <g id="编组-3">
                    <g id="编组-4">
                        <g id="分享">
                            <rect id="矩形" fill="#000000" opacity="0" x="0" y="0" width="18" height="18"></rect>
                            <path d="M16.0242187,11.4539063 L16.0242187,15.13125 C16.0242187,15.7640625 15.4898438,16.2949219 14.8605469,16.2949219 L2.56289062,16.3160156 C1.93359375,16.3160156 1.4203125,15.8027344 1.4203125,15.1699219 L1.44140625,2.87226562 C1.44140625,2.24296875 1.97578125,1.70859375 2.60507812,1.70859375 L9.4078125,1.70859375 L9.4078125,0.355078125 L2.60507812,0.355078125 C1.1671875,0.355078125 0.09140625,1.81054687 0.09140625,3.11132812 L0.09140625,15.1699219 C0.09140625,16.5339844 1.19882812,17.6449219 2.56640625,17.6449219 L14.625,17.6449219 C16.0664062,17.6449219 17.3777344,16.4460937 17.3777344,15.13125 L17.3777344,11.4539063 L16.0242187,11.4539063 L16.0242187,11.4539063 Z M12.8355469,1.06875 L17.9085938,6.15234375 L12.8355469,11.2324219 L12.8355469,8.32851563 C12.8355469,8.32851563 7.80117188,7.76953125 4.86210938,11.9601562 C4.86210938,11.9601562 5.78671875,3.97265625 12.8355469,3.97265625 L12.8355469,1.06875 L12.8355469,1.06875 Z" id="形状" fill="#666666"></path>
                        </g>
                    </g>
                </g>
            </g>
        </g>
    </g>
</svg>