<?xml version="1.0" encoding="UTF-8"?>
<svg width="50px" height="50px" viewBox="0 0 50 50" version="1.1" xmlns="http://www.w3.org/2000/svg" xmlns:xlink="http://www.w3.org/1999/xlink">
    <!-- Generator: Sketch 63 (92445) - https://sketch.com -->
    <title>编组 22</title>
    <desc>Created with Sketch.</desc>
    <g id="页面-1" stroke="none" stroke-width="1" fill="none" fill-rule="evenodd">
        <g id="分享弹窗" transform="translate(-35.000000, -647.000000)">
            <g id="编组-7" transform="translate(33.000000, 647.000000)">
                <g id="编组-4">
                    <g id="编组-22" transform="translate(2.000000, 0.000000)">
                        <circle id="椭圆形" fill="#FFFFFF" cx="25" cy="25" r="25"></circle>
                        <g id="链接" transform="translate(10.000000, 10.000000)" fill="#000000" fill-rule="nonzero">
                            <rect id="矩形" opacity="0" x="0" y="0" width="30" height="30"></rect>
                            <path d="M15.51,12 C14.9284146,12.5850562 14.9284146,13.5299438 15.51,14.115 C16.3605073,14.9694265 16.3605073,16.3505735 15.51,17.205 L11.1,21.66 C10.5621926,22.2762376 9.72580615,22.5414255 8.9311748,22.3476561 C8.13654345,22.1538866 7.51611337,21.5334565 7.32234392,20.7388252 C7.12857446,19.9441938 7.39376238,19.1078074 8.01,18.57 L9,17.505 C9.5840411,16.9168167 9.58068323,15.9665411 8.99249998,15.3825 C8.40431673,14.7984589 7.45404113,14.8018168 6.87,15.39 L5.88,16.5 C3.97712722,18.5452573 4.03453139,21.7297719 6.00987975,23.7051203 C7.9852281,25.6804686 11.1697427,25.7378728 13.215,23.835 L17.64,19.41 C19.6636442,17.3837256 19.6636442,14.1012744 17.64,12.075 C17.3684804,11.7808874 16.9906703,11.6074976 16.5906369,11.5934119 C16.1906035,11.5793262 15.8015337,11.7257132 15.51,12 Z" id="路径"></path>
                            <path d="M23.73,6 C21.6778056,4.03999023 18.4471944,4.03999023 16.395,6 L12,10.365 C9.97635579,12.3912744 9.97635579,15.6737256 12,17.7 C12.5840411,18.2881833 13.5343167,18.2915411 14.1225,17.7075 C14.7106833,17.1234589 14.7140411,16.1731833 14.13,15.585 C13.2794927,14.7305735 13.2794927,13.3494265 14.13,12.495 L18.555,8.07 C19.4191275,7.24332301 20.7808725,7.24332301 21.645,8.07 C22.4955073,8.92442653 22.4955073,10.3055735 21.645,11.16 L20.58,12.225 C19.9918167,12.8090411 19.9884589,13.7593167 20.5725,14.3475 C21.1565411,14.9356833 22.1068167,14.9390411 22.695,14.355 L23.76,13.29 C25.7455725,11.2608065 25.7322062,8.0127829 23.73,6 L23.73,6 Z" id="路径"></path>
                        </g>
                    </g>
                </g>
            </g>
        </g>
    </g>
</svg>