<?xml version="1.0" encoding="UTF-8"?>
<svg width="50px" height="50px" viewBox="0 0 50 50" version="1.1" xmlns="http://www.w3.org/2000/svg" xmlns:xlink="http://www.w3.org/1999/xlink">
    <!-- Generator: Sketch 63 (92445) - https://sketch.com -->
    <title>编组 21</title>
    <desc>Created with Sketch.</desc>
    <g id="页面-1" stroke="none" stroke-width="1" fill="none" fill-rule="evenodd">
        <g id="分享弹窗" transform="translate(-291.000000, -648.000000)">
            <g id="编组-7" transform="translate(33.000000, 647.000000)">
                <g id="编组-6" transform="translate(258.000000, 1.000000)">
                    <g id="编组-21">
                        <circle id="椭圆形" fill="#FFFFFF" cx="25" cy="25" r="25"></circle>
                        <g id="朋友圈" transform="translate(10.000000, 10.000000)" fill="#000000" fill-rule="nonzero">
                            <rect id="矩形" opacity="0" x="0" y="0" width="30" height="30"></rect>
                            <path d="M19.8975844,11.6889249 L19.8975844,3.70596735 C19.8975844,3.70596735 15.991173,1.6117972 11.4310847,3.22650243 L19.8975844,11.6889249 Z M20.637153,16.3853008 L20.637153,4.03559388 C20.637153,4.03559388 25.255222,6.12838497 26.5566396,11.2122481 L20.637153,16.3853008 Z M18.1527674,19.974947 L26.6778774,11.9579026 C26.6778774,11.9579026 28.1863046,14.4102998 25.9368698,19.974947 L18.1527674,19.974947 Z M13.7996888,20.9914078 L25.3137722,20.9914078 C25.3137722,20.9914078 23.9237946,24.7588335 18.9488776,26.3142989 L13.7996888,20.9914078 Z M10.0411071,18.4481122 L10.0411071,25.9533736 C10.0411071,25.9533736 13.0314896,27.8683852 18.1527674,26.582617 L10.0411071,18.4481122 Z M3.37998337,18.836319 L9.21225908,13.603307 L9.21225908,25.5038884 C9.21225908,25.5038884 5.6886581,24.2807476 3.37998337,18.836319 Z M3.23218359,17.9993165 C3.23218359,17.9993165 1.89805813,13.6945651 3.76405298,9.95574003 L11.7858642,9.95574003 L3.23218359,17.9993165 Z M4.26804126,9.11669889 C4.26804126,9.11669889 5.95562707,5.29069292 10.5437164,3.49551006 L16.019114,9.11669889 L4.26804126,9.11669889 Z" id="形状"></path>
                        </g>
                    </g>
                </g>
            </g>
        </g>
    </g>
</svg>