<?xml version="1.0" encoding="UTF-8"?>
<svg width="76px" height="76px" viewBox="0 0 76 76" version="1.1" xmlns="http://www.w3.org/2000/svg" xmlns:xlink="http://www.w3.org/1999/xlink">
    <!-- Generator: Sketch 63 (92445) - https://sketch.com -->
    <title>编组 11</title>
    <desc>Created with Sketch.</desc>
    <g id="页面-1" stroke="none" stroke-width="1" fill="none" fill-rule="evenodd">
        <g id="发布弹窗" transform="translate(-216.000000, -630.000000)">
            <g id="编组-18">
                <g id="编组-3" transform="translate(0.000000, 542.000000)">
                    <g id="编组-13备份" transform="translate(216.000000, 88.000000)">
                        <g id="编组-11">
                            <ellipse id="椭圆形备份" fill="#3E3E3E" cx="38" cy="37.8932156" rx="38" ry="37.8932156"></ellipse>
                            <g id="视频" transform="translate(22.000000, 21.938177)" fill-rule="nonzero">
                                <rect id="矩形" fill="#000000" opacity="0" x="0" y="0" width="33" height="32.9072662"></rect>
                                <path d="M24.0952381,2.99156965 C27.9087381,2.99156965 31,6.10313447 31,9.94168098 L31,18.9768257 C31,22.8153722 27.9087381,25.926937 24.0952381,25.926937 L8.90476189,25.926937 C5.09126189,25.926937 2,22.8153722 2,18.9768257 L2,9.94168098 C2,6.10313451 5.09126189,2.99156965 8.90476189,2.99156965 L24.0952381,2.99156965 Z M24.0952381,5.07660304 L8.90476189,5.07660304 C7.62288219,5.07660304 6.39350494,5.58917228 5.48707911,6.50155138 C4.58065329,7.41393048 4.07142857,8.65138209 4.07142857,9.94168098 L4.07142857,18.9768257 C4.07142857,21.663734 6.23538561,23.8419036 8.90476189,23.8419036 L24.0952381,23.8419036 C26.7646144,23.8419036 28.9285714,21.663734 28.9285714,18.9768257 L28.9285714,9.94168098 C28.9285714,8.65138209 28.4193467,7.41393048 27.5129209,6.50155138 C26.6064951,5.58917228 25.3771178,5.07660304 24.0952381,5.07660304 Z" id="形状" fill="#FFFFFF"></path>
                                <path d="M14.9615384,8.97470895 C15.5745646,8.97470895 16.1766218,9.13327068 16.7061538,9.43446825 L20.8807692,11.8095535 C21.9442858,12.4144812 22.598264,13.524766 22.598264,14.7254128 C22.598264,15.9260597 21.9442858,17.0363445 20.8807692,17.6412722 L16.7061538,20.0163574 C15.6353926,20.6256735 14.31224,20.6300537 13.2372613,20.0278409 C12.1622827,19.4256282 11.4996326,18.3087833 11.4999999,17.0998229 L11.4999999,12.3503276 C11.4999999,10.4860249 13.0497836,8.97470895 14.9615384,8.97470895 L14.9615384,8.97470895 Z M14.9615384,11.0000802 C14.1968365,11.0000802 13.5769231,11.6046065 13.5769231,12.3503276 L13.5769231,17.1004981 C13.5770241,17.5839616 13.8421819,18.030478 14.2721278,18.2711982 C14.7020737,18.5119184 15.231187,18.5101023 15.6593846,18.2664367 L19.834,15.8920266 C20.2596747,15.6501239 20.5214729,15.205863 20.5214729,14.7254128 C20.5214729,14.2449627 20.2596747,13.8007018 19.834,13.558799 L15.6593846,11.1843889 C15.4476125,11.0637682 15.206787,11.0001636 14.9615384,11.0000802 L14.9615384,11.0000802 Z M8.03846154,29.9156965 L23.9615385,29.9156965 C24.5350649,29.9156965 25,29.4623017 25,28.9030109 C25,28.3437201 24.5350649,27.8903254 23.9615385,27.8903254 L8.03846154,27.8903254 C7.46493507,27.8903254 7,28.3437201 7,28.9030109 C7,29.4623017 7.46493507,29.9156965 8.03846154,29.9156965 Z" id="形状" fill="#FFFFFF"></path>
                            </g>
                        </g>
                    </g>
                </g>
            </g>
        </g>
    </g>
</svg>