<?xml version="1.0" encoding="UTF-8"?>
<svg width="76px" height="76px" viewBox="0 0 76 76" version="1.1" xmlns="http://www.w3.org/2000/svg" xmlns:xlink="http://www.w3.org/1999/xlink">
    <!-- Generator: Sketch 63 (92445) - https://sketch.com -->
    <title>编组 9</title>
    <desc>Created with Sketch.</desc>
    <g id="页面-1" stroke="none" stroke-width="1" fill="none" fill-rule="evenodd">
        <g id="发布弹窗" transform="translate(-81.000000, -630.000000)">
            <g id="编组-18">
                <g id="编组-3" transform="translate(0.000000, 542.000000)">
                    <g id="编组-12备份" transform="translate(81.000000, 88.000000)">
                        <g id="编组-9">
                            <ellipse id="椭圆形" fill="#CF1322" cx="38" cy="37.8932156" rx="38" ry="37.8932156"></ellipse>
                            <g id="图片" transform="translate(22.000000, 21.938177)" fill-rule="nonzero">
                                <rect id="矩形" fill="#000000" opacity="0" x="0" y="0" width="33" height="32.9072662"></rect>
                                <path d="M25.5903084,30.9128864 L5.10572687,30.9128864 C3.3876652,30.9128864 2,29.5332449 2,27.8251172 L2,9.36419959 C2,7.65607198 3.3876652,6.27643044 5.10572687,6.27643044 L25.5903084,6.27643044 C27.30837,6.27643044 28.6960352,7.65607198 28.6960352,9.36419959 L28.6960352,27.8251172 C28.6960352,29.5332449 27.30837,30.9128864 25.5903084,30.9128864 Z M5.10572687,8.24734692 C4.47797357,8.24734692 3.98237885,8.74007604 3.98237885,9.36419959 L3.98237885,27.8251172 C3.98237885,28.4492408 4.47797357,28.9419699 5.10572687,28.9419699 L25.5903084,28.9419699 C26.2180617,28.9419699 26.7136564,28.4492408 26.7136564,27.8251172 L26.7136564,9.36419959 C26.7136564,8.74007604 26.2180617,8.24734692 25.5903084,8.24734692 L5.10572687,8.24734692 Z M31.0088106,27.6280256 C30.4471366,27.6280256 30.0176211,27.2009937 30.0176211,26.6425674 L30.0176211,8.37874135 C30.0176211,6.5063707 28.4647577,4.96248613 26.5814978,4.96248613 L6.29515419,4.96248613 C5.73348018,4.96248613 5.30396476,4.53545422 5.30396476,3.97702789 C5.30396476,3.41860155 5.73348018,2.99156965 6.29515419,2.99156965 L26.5814978,2.99156965 C29.5881057,2.99156965 32,5.42236664 32,8.37874135 L32,26.6425674 C32,27.2009937 31.5704846,27.6280256 31.0088106,27.6280256 Z M2.99118943,27.2995395 C2.6277533,27.2995395 2.29735683,27.1024479 2.13215859,26.7739618 C1.86784141,26.2812327 2.0660793,25.6899577 2.52863436,25.4271689 L19.0484581,16.5580447 C19.4449339,16.3281045 19.9405286,16.4266503 20.2378855,16.7551364 L24.3348018,21.2225471 C24.6982379,21.6167303 24.6651982,22.2408539 24.2687225,22.6021886 C23.8722467,22.9635233 23.2444934,22.9306747 22.8810573,22.5364914 L19.3127753,18.6603556 L3.45374449,27.1681451 C3.3215859,27.2666909 3.15638767,27.2995395 2.99118943,27.2995395 Z M9.76431718,18.1019293 C8.04625551,18.1019293 6.62555066,16.6894392 6.62555066,14.9813115 C6.62555066,13.2731839 8.04625551,11.8606938 9.76431718,11.8606938 C11.4823789,11.8606938 12.9030837,13.2731839 12.9030837,14.9813115 C12.9030837,16.6894392 11.4823789,18.1019293 9.76431718,18.1019293 Z M9.76431718,13.8316103 C9.13656388,13.8316103 8.60792952,14.357188 8.60792952,14.9813115 C8.60792952,15.6054351 9.13656388,16.1310128 9.76431718,16.1310128 C10.3920705,16.1310128 10.9207048,15.6054351 10.9207048,14.9813115 C10.9207048,14.357188 10.3920705,13.8316103 9.76431718,13.8316103 Z" id="形状" fill="#FFFFFF"></path>
                            </g>
                        </g>
                    </g>
                </g>
            </g>
        </g>
    </g>
</svg>