<?xml version="1.0" encoding="UTF-8"?>
<svg width="51px" height="50px" viewBox="0 0 51 50" version="1.1" xmlns="http://www.w3.org/2000/svg" xmlns:xlink="http://www.w3.org/1999/xlink">
    <!-- Generator: Sketch 63 (92445) - https://sketch.com -->
    <title>编组 20</title>
    <desc>Created with Sketch.</desc>
    <g id="页面-1" stroke="none" stroke-width="1" fill="none" fill-rule="evenodd">
        <g id="分享弹窗" transform="translate(-162.000000, -647.000000)">
            <g id="编组-7" transform="translate(33.000000, 647.000000)">
                <g id="编组-5" transform="translate(127.500000, 0.000000)">
                    <g id="编组-20" transform="translate(2.000000, 0.000000)">
                        <circle id="椭圆形" fill="#FFFFFF" cx="25" cy="25" r="25"></circle>
                        <g id="微信" transform="translate(10.000000, 10.000000)" fill="#000000" fill-rule="nonzero">
                            <rect id="矩形" opacity="0" x="0" y="0" width="30" height="30"></rect>
                            <path d="M20.2508799,10.6363985 C20.3829104,10.6363985 20.5141314,10.6393365 20.6447229,10.6442232 C19.8130568,6.83605515 15.887908,3.95249021 11.1705763,3.95249021 C5.84807499,3.95249021 1.53337037,7.6231415 1.53337037,12.1510616 C1.53337037,14.796528 3.00660152,17.148883 5.29273151,18.6479867 L4.32987434,21.4880811 L7.51821264,19.7397265 C8.64469887,20.1325201 9.87773288,20.3496329 11.1705463,20.3496329 C11.4197674,20.3496329 11.6667699,20.3415984 11.9111942,20.3257691 C11.641497,19.6115034 11.4953761,18.8503494 11.4953761,18.0602052 C11.4954361,13.960185 15.4153684,10.6363985 20.2508799,10.6363985 Z M14.4964014,8.00538234 C15.2823785,8.00538234 15.9195665,8.64254036 15.9195665,9.42854745 C15.9195665,10.2145246 15.2824085,10.8517126 14.4964014,10.8517126 C13.7103943,10.8517126 13.0732363,10.2145545 13.0732363,9.42854745 C13.0732663,8.64254036 13.7104243,8.00538234 14.4964014,8.00538234 Z M7.87566029,10.8516826 C7.08968317,10.8516826 6.45249519,10.2145245 6.45249519,9.42851745 C6.45249519,8.64254033 7.0896532,8.00535234 7.87566029,8.00535234 C8.66166738,8.00535234 9.2988254,8.64251036 9.2988254,9.42851745 C9.2988254,10.2144946 8.66166738,10.8516826 7.87566029,10.8516826 Z" id="形状"></path>
                            <path d="M28.3876032,18.0602352 C28.3876032,14.2499086 24.7446831,11.1610428 20.2508799,11.1610428 C15.7570767,11.1610428 12.1141866,14.2499086 12.1141866,18.0602352 C12.1141866,21.8705618 15.7571067,24.9594275 20.2509099,24.9594275 C21.1944602,24.9594275 22.1002361,24.8227801 22.9429347,24.57236 L25.7249585,26.0978757 L24.9164067,23.7129027 C27.0151937,22.4651486 28.3876032,20.3987097 28.3876032,18.0602352 Z M17.7087235,17.0702164 C17.0794202,17.0702164 16.569286,16.5600823 16.569286,15.9307789 C16.569286,15.3014756 17.0794201,14.7913414 17.7087235,14.7913414 C18.3380268,14.7913414 18.848161,15.3014756 18.848161,15.9307789 C18.848161,16.5600823 18.3380268,17.0702164 17.7087235,17.0702164 Z M23.0096395,17.0702164 C22.3803362,17.0702164 21.870202,16.5600823 21.870202,15.9307789 C21.870202,15.3014756 22.3803361,14.7913414 23.0096395,14.7913414 C23.6389428,14.7913414 24.1490769,15.3014756 24.1490769,15.9307789 C24.1490769,16.5600823 23.6389128,17.0702164 23.0096395,17.0702164 Z" id="形状"></path>
                        </g>
                    </g>
                </g>
            </g>
        </g>
    </g>
</svg>