<?xml version="1.0" encoding="UTF-8"?>
<svg width="21px" height="17px" viewBox="0 0 21 17" version="1.1" xmlns="http://www.w3.org/2000/svg" xmlns:xlink="http://www.w3.org/1999/xlink">
    <!-- Generator: Sketch 63 (92445) - https://sketch.com -->
    <title>上传 (1)</title>
    <desc>Created with Sketch.</desc>
    <g id="页面-1" stroke="none" stroke-width="1" fill="none" fill-rule="evenodd">
        <g id="我的——1" transform="translate(-16.000000, -290.000000)" fill-rule="nonzero">
            <g id="上传-(1)" transform="translate(15.000000, 287.000000)">
                <rect id="矩形" fill="#000000" opacity="0" x="0" y="0" width="22" height="22"></rect>
                <path d="M16.7859999,7.79830378 C19.4226073,7.79830382 21.5599999,9.9262415 21.5599999,12.5511856 C21.5599999,15.1761298 19.4226073,17.3040675 16.7859999,17.3040675 L16.1039999,17.3040675 C15.7273417,17.3040675 15.4219999,17.0000764 15.4219999,16.6250844 C15.4219999,16.2500924 15.7273417,15.9461013 16.1039999,15.9461013 L16.7859999,15.9461013 C18.6692909,15.9461013 20.1959999,14.4261458 20.1959999,12.5511856 C20.1959999,10.6762255 18.6692909,9.15627002 16.7859999,9.15627002 C16.5869369,9.15559395 16.388261,9.17378218 16.1926599,9.21058867 C16.0062914,9.24792434 15.8127281,9.20612235 15.6586487,9.09526344 C15.5045694,8.98440453 15.4039589,8.81455081 15.3810799,8.62666319 C15.093734,6.619012 13.366941,5.12745859 11.3299999,5.12745859 C9.29305888,5.12745859 7.56626582,6.619012 7.27891993,8.62666319 C7.25604098,8.81455081 7.1554305,8.98440453 7.00135112,9.09526344 C6.84727175,9.20612235 6.65370849,9.24792434 6.46733993,9.21058867 C6.27173885,9.17378218 6.073063,9.15559395 5.87399993,9.15627002 C3.99070893,9.15627002 2.46399993,10.6762255 2.46399993,12.5511856 C2.46399993,14.4261458 3.99070893,15.9461013 5.87399993,15.9461013 L6.55599993,15.9461013 C6.93265813,15.9461013 7.23799993,16.2500924 7.23799993,16.6250844 C7.23799993,17.0000764 6.93265813,17.3040675 6.55599993,17.3040675 L5.87399993,17.3040675 C3.23739256,17.3040675 1.1,15.1761298 1.1,12.5511856 C1.1,9.9262415 3.23739256,7.79830382 5.87399993,7.79830378 L6.05131993,7.79830378 C6.67892112,5.40768522 8.84809748,3.74 11.3299999,3.74 C13.8119024,3.74 15.9810787,5.40768522 16.6086799,7.79830378 L16.7859999,7.79830378 Z M12.0119999,19.3410169 C12.0119999,19.7160089 11.7066581,20.02 11.3299999,20.02 C10.9533417,20.02 10.6479999,19.7160089 10.6479999,19.3410169 L10.6479999,13.2301688 C10.6479999,12.8551767 10.9533417,12.5511856 11.3299999,12.5511856 C11.7066581,12.5511856 12.0119999,12.8551767 12.0119999,13.2301688 L12.0119999,19.3410169 Z M9.45449993,16.3942301 C9.29720907,16.5886508 9.04544143,16.6814586 8.79890051,16.6359005 C8.55235959,16.5903424 8.3508144,16.4137672 8.27407963,16.1761011 C8.19734486,15.9384351 8.25779845,15.6780156 8.43149993,15.4979724 L10.8184999,12.7820399 C10.9479661,12.6358885 11.1342655,12.5521619 11.3299999,12.5521619 C11.5257343,12.5521619 11.7120338,12.6358885 11.8414999,12.7820399 L14.2284999,15.4979724 C14.4575169,15.7810506 14.4219924,16.1934786 14.1479092,16.4336048 C13.873826,16.6737311 13.4584109,16.6563746 13.2054999,16.3942301 L11.3299999,14.2622231 L9.45449993,16.3942301 Z" id="形状" fill="#666666"></path>
            </g>
        </g>
    </g>
</svg>