<?xml version="1.0" encoding="UTF-8"?>
<svg width="16px" height="14px" viewBox="0 0 16 14" version="1.1" xmlns="http://www.w3.org/2000/svg" xmlns:xlink="http://www.w3.org/1999/xlink">
    <!-- Generator: Sketch 63 (92445) - https://sketch.com -->
    <title>分类</title>
    <desc>Created with Sketch.</desc>
    <g id="页面-1" stroke="none" stroke-width="1" fill="none" fill-rule="evenodd">
        <g id="首页" transform="translate(-344.000000, -283.000000)" fill-rule="nonzero">
            <g id="编组" transform="translate(15.000000, 112.000000)">
                <g id="分类" transform="translate(329.000000, 170.000000)">
                    <rect id="矩形" fill="#000000" opacity="0" x="0" y="0" width="16" height="16"></rect>
                    <path d="M14.15936,1.81856 L1.81136,1.81856 C1.2752,1.81856 0.84032,2.25352 0.84032,2.79 L0.84032,2.79464 C0.84032,3.3312 1.2752,3.76608 1.81136,3.76608 L14.15936,3.76608 C14.69544,3.76608 15.13048,3.33112 15.13048,2.79464 L15.13048,2.79 C15.13048,2.25352 14.69544,1.81856 14.15936,1.81856 L14.15936,1.81856 Z M14.1544,6.99128 L1.8164,6.99128 C1.2772,6.99128 0.84032,7.42856 0.84032,7.96744 L0.84032,7.97512 C0.84032,8.514 1.27712,8.9512 1.8164,8.9512 L14.1544,8.9512 C14.6936,8.9512 15.13048,8.514 15.13048,7.97512 L15.13048,7.96744 C15.13048,7.42856 14.6936,6.99128 14.1544,6.99128 L14.1544,6.99128 Z M14.15936,12.1764 L1.81136,12.1764 C1.2752,12.1764 0.84032,12.61144 0.84032,13.14792 L0.84032,13.15256 C0.84032,13.68912 1.2752,14.12408 1.81136,14.12408 L14.15936,14.12408 C14.69544,14.12408 15.13048,13.68912 15.13048,13.15256 L15.13048,13.14792 C15.13048,12.61144 14.69544,12.1764 14.15936,12.1764 L14.15936,12.1764 Z" id="形状" fill="#999999"></path>
                </g>
            </g>
        </g>
    </g>
</svg>