<?xml version="1.0" encoding="UTF-8"?>
<svg width="18px" height="18px" viewBox="0 0 18 18" version="1.1" xmlns="http://www.w3.org/2000/svg" xmlns:xlink="http://www.w3.org/1999/xlink">
    <!-- Generator: Sketch 63 (92445) - https://sketch.com -->
    <title>maichu</title>
    <desc>Created with Sketch.</desc>
    <defs>
        <polygon id="path-1" points="0 0 18 0 18 18 0 18"></polygon>
    </defs>
    <g id="页面-1" stroke="none" stroke-width="1" fill="none" fill-rule="evenodd">
        <g id="我的——1" transform="translate(-16.000000, -446.000000)">
            <g id="maichu" transform="translate(16.000000, 446.000000)">
                <mask id="mask-2" fill="white">
                    <use xlink:href="#path-1"></use>
                </mask>
                <g id="Clip-2"></g>
                <path d="M4.68001632,2.88 C3.49166618,2.88 2.52,3.85167352 2.52,5.04 C2.52,6.22832648 3.49166618,7.2 4.68001632,7.2 C5.87101095,7.2 6.84,6.22832648 6.84,5.04 C6.84,3.85167352 5.87101095,2.88 4.68001632,2.88 Z M4.68001632,6.24925393 C4.01403224,6.24925393 3.47073888,5.70595647 3.47073888,5.04 C3.47073888,4.37404353 4.01403224,3.83074607 4.68001632,3.83074607 C5.34609835,3.83074607 5.88926112,4.36878718 5.88926112,5.04 C5.88926112,5.71121282 5.34609835,6.25447763 4.68001632,6.24925393 Z" id="Fill-1" fill="#666666" mask="url(#mask-2)"></path>
                <path d="M17.3671886,8.79239183 L11.0917461,2.40643312 C9.67542258,1.00688429 8.65099635,-0.00499697145 6.8956353,1.8562645e-05 L4.04299309,1.8562645e-05 C0.585130816,1.8562645e-05 0,1.28625287 0,4.16338117 L0,7.21415912 C0,8.82508289 0.311446164,9.29826953 1.53183675,10.4864119 L8.60573276,17.4210079 C9.39671562,18.1938574 10.8959387,18.1912773 11.6843476,17.4235879 L17.3746907,11.8682466 C17.7714534,11.483159 18,10.9269075 18,10.3379335 C18,9.74637939 17.7688794,9.18506217 17.3671886,8.79239183 Z M16.6138417,10.9269075 L10.7653586,16.6307274 C10.6221285,16.7691059 10.4062319,16.847168 10.1726315,16.847168 C9.93918816,16.847168 9.72570849,16.7691059 9.58260396,16.6307274 L2.31534892,9.50215605 C1.20284388,8.42489267 1.17267862,8.28896832 1.17267862,7.16129965 L1.17267862,4.02497117 C1.17267862,1.5682015 1.35856697,1.17307697 3.90233694,1.17307697 L6.83543032,1.17307697 C8.00810894,1.17307697 8.69867693,1.8073906 10.1476141,3.24205322 L10.7402156,3.82108465 L16.5937525,9.79665881 C16.7469016,9.94265163 16.8247474,10.1491497 16.8247474,10.3730787 C16.8247474,10.5945536 16.7494755,10.7934059 16.6138417,10.9269075 Z" id="Fill-3" fill="#666666" mask="url(#mask-2)"></path>
            </g>
        </g>
    </g>
</svg>