<?xml version="1.0" encoding="UTF-8"?>
<svg width="24px" height="23px" viewBox="0 0 24 23" version="1.1" xmlns="http://www.w3.org/2000/svg" xmlns:xlink="http://www.w3.org/1999/xlink">
    <!-- Generator: Sketch 63 (92445) - https://sketch.com -->
    <title>微信支付</title>
    <desc>Created with Sketch.</desc>
    <g id="页面-1" stroke="none" stroke-width="1" fill="none" fill-rule="evenodd">
        <g id="单次购买" transform="translate(-273.000000, -337.000000)" fill-rule="nonzero">
            <g id="编组" transform="translate(273.000000, 337.000000)">
                <g id="微信支付">
                    <rect id="矩形" fill="#000000" opacity="0" x="0" y="0" width="24" height="24"></rect>
                    <path d="M0,11.46 L0,10.74 C0.06,10.08 0.18,9.48 0.36,8.88 C0.84,7.32 1.62,6 2.7,4.86 C4.2,3.24 6,2.22 7.98,1.56 C9.12,1.2 10.26,1.02 11.4,0.96 C12.36,0.9 13.26,0.96 14.22,1.14 C15,1.26 15.72,1.44 16.5,1.74 C18.36,2.4 19.98,3.42 21.36,4.86 C21.54,5.04 21.66,5.22 21.84,5.4 C21.78,5.4 21.78,5.46 21.72,5.46 C21.24,5.7 20.76,5.94 20.28,6.12 C16.92,7.68 13.56,9.24 10.2,10.74 C9.54,11.04 8.88,10.98 8.28,10.62 C7.8,10.32 7.38,10.02 6.9,9.72 C6.6,9.48 6.3,9.3 5.94,9.06 C5.64,8.88 5.46,9 5.46,9.36 L5.46,9.42 C5.52,9.72 5.58,10.02 5.7,10.32 C6.3,11.76 6.9,13.14 7.5,14.58 C7.68,15 7.98,15.18 8.34,15.12 C8.58,15.12 8.82,15.06 9,14.94 C9.72,14.58 10.38,14.16 11.04,13.74 C14.7,11.58 18.3,9.42 21.96,7.26 C22.2,7.08 22.5,6.96 22.74,6.78 C22.74,6.84 22.8,6.84 22.8,6.9 C22.92,7.14 23.04,7.32 23.1,7.56 C23.76,9 24.06,10.5 23.94,12.06 C23.88,12.72 23.76,13.38 23.58,14.04 C23.16,15.48 22.44,16.74 21.42,17.88 C20.22,19.2 18.72,20.22 17.1,20.88 C16.14,21.24 15.18,21.54 14.22,21.72 C13.56,21.84 12.9,21.9 12.3,21.9 L11.22,21.9 C10.74,21.84 10.26,21.84 9.84,21.78 C9.12,21.66 8.4,21.48 7.74,21.24 L7.56,21.24 C7.26,21.42 7.02,21.6 6.72,21.78 C6.06,22.2 5.46,22.56 4.8,22.92 C4.68,22.98 4.5,23.04 4.38,23.04 C4.26,23.04 4.14,22.98 4.14,22.8 C4.14,22.68 4.14,22.5 4.2,22.38 C4.32,21.48 4.5,20.64 4.68,19.74 C4.68,19.62 4.68,19.56 4.56,19.5 C4.2,19.2 3.84,18.96 3.48,18.6 C2.28,17.52 1.32,16.2 0.72,14.7 C0.48,14.04 0.3,13.32 0.18,12.6 C0.12,12.3 0.12,12 0.12,11.64 C0,11.64 0,11.58 0,11.46 Z" id="路径" fill="#6BCC03"></path>
                </g>
            </g>
        </g>
    </g>
</svg>