<?xml version="1.0" encoding="UTF-8"?>
<svg width="18px" height="22px" viewBox="0 0 18 22" version="1.1" xmlns="http://www.w3.org/2000/svg" xmlns:xlink="http://www.w3.org/1999/xlink">
    <!-- Generator: Sketch 63 (92445) - https://sketch.com -->
    <title>zhanghuxianxing</title>
    <desc>Created with Sketch.</desc>
    <defs>
        <polygon id="path-1" points="0.0016097561 0.0214634146 17.5832317 0.0214634146 17.5832317 21.9999732 0.0016097561 21.9999732"></polygon>
    </defs>
    <g id="页面-1" stroke="none" stroke-width="1" fill="none" fill-rule="evenodd">
        <g id="首页" transform="translate(-305.000000, -771.000000)">
            <g id="编组-5" transform="translate(0.000000, 763.000000)">
                <g id="zhanghuxianxing" transform="translate(305.000000, 8.000000)">
                    <mask id="mask-2" fill="white">
                        <use xlink:href="#path-1"></use>
                    </mask>
                    <g id="Clip-2"></g>
                    <path d="M8.79162927,12.1099268 C12.129861,12.1099268 14.835861,9.40341707 14.835861,6.06569512 C14.835861,2.7275439 12.129861,0.0214634146 8.79162927,0.0214634146 C5.45347805,0.0214634146 2.74737073,2.7275439 2.74737073,6.06569512 C2.74737073,9.40341707 5.45347805,12.1099268 8.79162927,12.1099268 Z M8.79162927,1.12041707 C11.5229561,1.12041707 13.7369073,3.33444878 13.7369073,6.06569512 C13.7369073,8.79694146 11.5229561,11.0109732 8.79162927,11.0109732 C6.06038293,11.0109732 3.84632439,8.79694146 3.84632439,6.06569512 C3.84632439,3.33444878 6.06038293,1.12041707 8.79162927,1.12041707 Z M8.79162927,13.2088805 C1.66183171,13.2088805 0,16.859861 0,21.9999732 L17.5832317,21.9999732 C17.5832317,16.8298927 15.9515829,13.2088805 8.79162927,13.2088805 Z M1.09895366,20.9015561 C1.09895366,20.9015561 0.547370732,14.3078341 8.79162927,14.3078341 C17.0000171,14.3078341 16.484278,20.9015561 16.484278,20.9015561 L1.09895366,20.9015561 Z M8.79162927,9.91201951 C11.4928805,9.91201951 11.539,7.71413902 11.539,7.71413902 L6.04423171,7.71413902 C6.04423171,7.71413902 6.09035122,9.91201951 8.79162927,9.91201951 Z" id="Fill-1" fill="#999999" mask="url(#mask-2)"></path>
                </g>
            </g>
        </g>
    </g>
</svg>