<?xml version="1.0" encoding="UTF-8"?>
<svg width="12px" height="14px" viewBox="0 0 12 14" version="1.1" xmlns="http://www.w3.org/2000/svg" xmlns:xlink="http://www.w3.org/1999/xlink">
    <!-- Generator: Sketch 63 (92445) - https://sketch.com -->
    <title>搜索</title>
    <desc>Created with Sketch.</desc>
    <g id="页面-1" stroke="none" stroke-width="1" fill="none" fill-rule="evenodd">
        <g id="首页" transform="translate(-28.000000, -81.000000)" fill-rule="nonzero">
            <g id="编组-2" transform="translate(15.000000, 74.000000)">
                <g id="搜索" transform="translate(11.000000, 6.000000)">
                    <rect id="矩形" fill="#000000" opacity="0" x="0" y="0" width="16" height="16"></rect>
                    <path d="M13.7912016,14.129828 L11.4117428,11.0655056 C11.5349393,10.9614961 11.6543943,10.8522582 11.7694043,10.7372322 C12.2904751,10.2161295 12.6996217,9.60919697 12.9854918,8.93327123 C13.2815631,8.23321788 13.4316693,7.48984988 13.4316693,6.72379327 C13.4316693,5.95783259 13.2815471,5.21451256 12.9854758,4.51452316 C12.6996057,3.83864541 12.2904591,3.23174488 11.7694043,2.71067417 C11.2483496,2.18960347 10.6414651,1.78044086 9.96558733,1.49457069 C9.26561391,1.19849942 8.52234186,1.0483772 7.75639716,1.0483772 C6.99043648,1.0483772 6.24711645,1.19849942 5.54711105,1.49457069 C4.8712333,1.78044088 4.26431678,2.18960345 3.74326206,2.71067417 C3.22219134,3.23172889 2.81304475,3.83862942 2.52715858,4.51452316 C2.23108731,5.21452855 2.08096509,5.95783259 2.08096509,6.72379327 C2.08096509,7.48984988 2.23108731,8.23321788 2.52715858,8.93327123 C2.81302877,9.60919695 3.22217536,10.2161455 3.74324608,10.7372322 C4.2643008,11.2583189 4.87120133,11.6674974 5.54709506,11.9533836 C6.24710045,12.2494549 6.9904045,12.3995771 7.75638117,12.3995771 C8.52230988,12.3995771 9.26561391,12.2494389 9.96558733,11.9533676 C10.1674665,11.8679695 10.3630299,11.771347 10.5521656,11.6642676 L12.9649138,14.771457 C13.1420897,14.9996383 13.4647189,15.0456071 13.6855292,14.8741553 L13.7121831,14.8534494 C13.9330254,14.6819656 13.9683934,14.3580093 13.7912016,14.129828 Z M7.75639716,11.4402115 C5.15595227,11.4402115 3.04031466,9.32443003 3.04031466,6.72377728 C3.04031466,4.12333239 5.15593627,2.00771078 7.75639716,2.00771078 C10.3567621,2.00771078 12.4723038,4.12333239 12.4723038,6.72377728 C12.4723038,9.32443003 10.3567621,11.4402115 7.75639716,11.4402115 Z" id="形状" fill="#999999"></path>
                </g>
            </g>
        </g>
    </g>
</svg>