<?xml version="1.0" encoding="UTF-8"?>
<svg width="20px" height="18px" viewBox="0 0 20 18" version="1.1" xmlns="http://www.w3.org/2000/svg" xmlns:xlink="http://www.w3.org/1999/xlink">
    <!-- Generator: Sketch 63 (92445) - https://sketch.com -->
    <title>点赞备份</title>
    <desc>Created with Sketch.</desc>
    <g id="页面-1" stroke="none" stroke-width="1" fill="none" fill-rule="evenodd">
        <g id="我的——1" transform="translate(-16.000000, -498.000000)" fill-rule="nonzero">
            <g id="点赞备份" transform="translate(15.000000, 496.000000)">
                <rect id="矩形" fill="#000000" opacity="0" x="0" y="0" width="22" height="22"></rect>
                <path d="M17.82,5.5 C19.4431627,7.10981333 19.5468664,9.61018667 17.9237037,11.2176533 L11.2339405,17.8522667 C11.0790131,18.0071467 10.9026342,18.04 10.7810757,18.04 C10.6595173,18.04 10.4855219,18.0071467 10.328211,17.8522667 L3.63844777,11.2176533 C2.01528505,9.60784 2.11683728,7.10746667 3.74,5.5 C4.52178762,4.7256 5.4570574,4.18 6.55823387,4.18 C7.65941034,4.18 8.47861584,4.38709333 9.25801997,5.16149333 L10.7810757,6.6704 L12.3041315,5.16149333 C13.0835356,4.38709333 13.9027411,4.18 15.0039176,4.18 C16.1050941,4.18 17.0405959,4.7256 17.82,5.5 Z M14.7914152,2.64 C13.3391732,2.64 11.8890826,3.19518974 10.7810757,4.30771282 C9.67306884,3.19518974 8.22297827,2.64 6.77073623,2.64 C5.31849419,2.64 3.86840362,3.19518974 2.76039673,4.30771282 C0.546534422,6.53061538 0.546534422,10.1339897 2.76039673,12.3590359 L8.99750736,18.6204615 C9.49019392,19.1134872 10.1356348,19.36 10.7810757,19.36 C11.4265166,19.36 12.0719575,19.1134872 12.5624926,18.6183179 L18.7996033,12.3568923 C21.0134656,10.1339897 21.0134656,6.53061538 18.7996033,4.30556923 C17.6937478,3.19518974 16.2436573,2.64 14.7914152,2.64 Z" id="形状" fill="#666666"></path>
            </g>
        </g>
    </g>
</svg>