<?xml version="1.0" encoding="UTF-8"?>
<svg width="12px" height="12px" viewBox="0 0 12 12" version="1.1" xmlns="http://www.w3.org/2000/svg" xmlns:xlink="http://www.w3.org/1999/xlink">
    <!-- Generator: Sketch 63 (92445) - https://sketch.com -->
    <title>赞备份</title>
    <desc>Created with Sketch.</desc>
    <g id="页面-1" stroke="none" stroke-width="1" fill="none" fill-rule="evenodd">
        <g id="首页" transform="translate(-328.000000, -560.000000)" fill-rule="nonzero">
            <g id="编组" transform="translate(15.000000, 112.000000)">
                <g id="赞备份" transform="translate(311.000000, 446.000000)">
                    <rect id="矩形" fill="#000000" opacity="0" x="0" y="0" width="16" height="16"></rect>
                    <path d="M13.6234375,6.2875 C13.6234375,4.409375 12.1015625,2.8875 10.2234375,2.8875 C9.3515625,2.8875 8.5578125,3.21875 7.95625,3.7578125 C7.3546875,3.21875 6.5609375,2.8875 5.6890625,2.8875 C3.8109375,2.8875 2.2890625,4.409375 2.2890625,6.2875 C2.2890625,6.978125 2.496875,7.61875 2.85,8.15625 L2.84375,8.15625 C4.0203125,10.140625 5.671875,11.8078125 7.6359375,13.015625 C7.7328125,13.0609375 7.8421875,13.0875 7.95625,13.0875 C8.071875,13.0875 8.1796875,13.0609375 8.2765625,13.015625 C10.240625,11.8078125 11.8921875,10.140625 13.06875,8.15625 L13.0625,8.15625 C13.415625,7.6203125 13.6234375,6.978125 13.6234375,6.2875 Z" id="路径" fill="#E02020"></path>
                </g>
            </g>
        </g>
    </g>
</svg>