<?xml version="1.0" standalone="no"?><!DOCTYPE svg PUBLIC "-//W3C//DTD SVG 1.1//EN" "http://www.w3.org/Graphics/SVG/1.1/DTD/svg11.dtd"><svg t="1602643612283" class="icon" viewBox="0 0 1137 1024" version="1.1" xmlns="http://www.w3.org/2000/svg" p-id="8520" xmlns:xlink="http://www.w3.org/1999/xlink" width="222.0703125" height="200"><defs><style type="text/css"></style></defs><path d="M401.578667 806.456889c51.768889 0 93.696 41.358222 93.696 92.387555 0 51.029333-41.984 92.330667-93.696 92.330667-51.768889 0-93.696-41.301333-93.696-92.330667s41.927111-92.387556 93.696-92.387555z m414.947555 0c51.768889 0 93.696 41.358222 93.696 92.387555 0 51.029333-41.927111 92.330667-93.696 92.330667s-93.696-41.301333-93.696-92.330667 41.927111-92.387556 93.696-92.387555zM405.048889 880.128a16.725333 16.725333 0 0 0-16.839111 16.611556c0 9.159111 7.509333 16.611556 16.839111 16.611555 9.329778 0 16.839111-7.452444 16.839111-16.611555a16.725333 16.725333 0 0 0-16.839111-16.611556z m408.234667 0a16.725333 16.725333 0 0 0-16.839112 16.611556c0 9.159111 7.566222 16.611556 16.839112 16.611555 9.329778 0 16.896-7.452444 16.896-16.611555a16.725333 16.725333 0 0 0-16.896-16.611556zM179.541333 23.324444c19.399111 0 36.067556 13.653333 39.708445 32.426667l0.113778 0.568889 23.324444 136.647111h814.478222c26.055111 0 45.283556 17.294222 39.367111 42.211556l-0.170666 0.796444-89.884445 350.037333c-4.551111 17.521778-13.710222 23.153778-32.028444 23.381334H319.715556l17.237333 109.795555h578.56c22.186667 0 40.106667 10.808889 40.504889 32.540445v0.625778a40.163556 40.163556 0 0 1-39.822222 39.879111H302.933333c-19.399111 0-29.411556-13.596444-32.995555-32.369778l-0.113778-0.568889L152.291556 103.196444l-91.761778-6.712888c-22.129778 0-40.106667-10.808889-40.448-32.540445V56.604444c0-21.788444 17.749333-32.824889 39.822222-33.166222h119.637333zM305.322667 536.462222h637.155555l69.404445-270.279111H256.910222l48.355556 270.279111z" fill="#666666" p-id="8521"></path></svg>