<?xml version="1.0" encoding="UTF-8"?>
<svg width="20px" height="18px" viewBox="0 0 20 18" version="1.1" xmlns="http://www.w3.org/2000/svg" xmlns:xlink="http://www.w3.org/1999/xlink">
    <!-- Generator: Sketch 63 (92445) - https://sketch.com -->
    <title>84show_购买备份</title>
    <desc>Created with Sketch.</desc>
    <g id="页面-1" stroke="none" stroke-width="1" fill="none" fill-rule="evenodd">
        <g id="我的——1" transform="translate(-15.000000, -394.000000)" fill-rule="nonzero">
            <g id="84show_购买备份" transform="translate(15.000000, 393.000000)">
                <rect id="矩形" fill="#000000" opacity="0" x="0" y="0" width="20" height="20"></rect>
                <path d="M7.05882353,15.1764706 C7.96847329,15.1764706 8.70588235,15.9033104 8.70588235,16.7999223 C8.70588235,17.6965341 7.96847329,18.423374 7.05882353,18.423374 C6.14917377,18.423374 5.41176471,17.6965341 5.41176471,16.7999223 C5.41176471,15.9033104 6.14917377,15.1764706 7.05882353,15.1764706 Z M14.3529412,15.1764706 C15.2625909,15.1764706 16,15.9033104 16,16.7999223 C16,17.6965341 15.2625909,18.423374 14.3529412,18.423374 C13.4432914,18.423374 12.7058824,17.6965341 12.7058824,16.7999223 C12.7058824,15.9033104 13.4432914,15.1764706 14.3529412,15.1764706 Z M7.1198705,16.4705882 C6.9562112,16.4705882 6.82352941,16.6013683 6.82352941,16.7626819 C6.82352941,16.9239955 6.9562112,17.0547756 7.1198705,17.0547756 C7.28352981,17.0547756 7.4162116,16.9239955 7.4162116,16.7626819 C7.4162116,16.6013683 7.28352981,16.4705882 7.1198705,16.4705882 Z M14.2963411,16.4705882 C14.1326818,16.4705882 14,16.6013683 14,16.7626819 C14,16.9239955 14.1326818,17.0547756 14.2963411,17.0547756 C14.4600004,17.0547756 14.5926822,16.9239955 14.5926822,16.7626819 C14.5926822,16.6013683 14.4600004,16.4705882 14.2963411,16.4705882 Z M3.15585376,1.41176471 C3.49749553,1.41176471 3.7903398,1.65108678 3.85436923,1.98089948 L3.85624605,1.99092802 L4.26541408,4.39329278 L18.5825416,4.39329278 C19.0414752,4.39329278 19.3789682,4.6971953 19.2752883,5.13543316 L19.2720088,5.14871369 L17.691523,11.3021536 C17.6124197,11.6101371 17.4509332,11.7091067 17.1294623,11.7134881 L5.61858653,11.7134881 L5.92198054,13.6429255 L16.0923871,13.6429255 C16.4812458,13.6429255 16.7972245,13.832892 16.8036057,14.2147169 L16.8036057,14.2263032 C16.8036057,14.6095885 16.491519,14.9210383 16.1041419,14.927328 L5.32532738,14.927328 C4.98368562,14.927328 4.80848841,14.688006 4.74445898,14.3581933 L4.74258215,14.3481647 L2.67682791,2.8138143 L1.0641598,2.69616724 C0.675301016,2.69616724 0.359322388,2.50620072 0.352941176,2.12439536 L0.352941176,1.99514244 C0.352941176,1.61185714 0.665027859,1.41805446 1.05240493,1.41176471 L3.15585376,1.41176471 Z M5.36746709,10.4290856 L16.5660784,10.4290856 L17.7864506,5.67769531 L4.51651376,5.67769531 L5.36746709,10.4290856 Z" id="形状" fill="#666666"></path>
            </g>
        </g>
    </g>
</svg>