<?xml version="1.0" encoding="UTF-8"?>
<svg width="18px" height="16px" viewBox="0 0 18 16" version="1.1" xmlns="http://www.w3.org/2000/svg" xmlns:xlink="http://www.w3.org/1999/xlink">
    <!-- Generator: Sketch 63 (92445) - https://sketch.com -->
    <title>钱包</title>
    <desc>Created with Sketch.</desc>
    <g id="页面-1" stroke="none" stroke-width="1" fill="none" fill-rule="evenodd">
        <g id="我的——1" transform="translate(-16.000000, -343.000000)" fill-rule="nonzero">
            <g id="钱包" transform="translate(15.000000, 341.000000)">
                <rect id="矩形" fill="#000000" opacity="0" x="0" y="0" width="20" height="20"></rect>
                <path d="M16.875,17.5 L3.125,17.5 C2.09375,17.5 1.25,16.65625 1.25,15.625 L1.25,4.375 C1.25,3.34375 2.09375,2.5 3.125,2.5 L16.875,2.5 C17.90625,2.5 18.75,3.34375 18.75,4.375 L18.75,5.625 C18.75,5.96875 18.46875,6.25 18.125,6.25 C17.78125,6.25 17.5,5.96875 17.5,5.625 L17.5,4.375 C17.5,4.03125 17.21875,3.75 16.875,3.75 L3.125,3.75 C2.78125,3.75 2.5,4.03125 2.5,4.375 L2.5,15.625 C2.5,15.96875 2.78125,16.25 3.125,16.25 L16.875,16.25 C17.21875,16.25 17.5,15.96875 17.5,15.625 L17.5,14.375 C17.5,14.03125 17.78125,13.75 18.125,13.75 C18.46875,13.75 18.75,14.03125 18.75,14.375 L18.75,15.625 C18.75,16.65625 17.90625,17.5 16.875,17.5 Z M15,10.625 L14.375,10.625 C14.03125,10.625 13.75,10.34375 13.75,10 C13.75,9.65625 14.03125,9.375 14.375,9.375 L15,9.375 C15.34375,9.375 15.625,9.65625 15.625,10 C15.625,10.34375 15.34375,10.625 15,10.625 Z M18.125,12.5 L13.125,12.5 C12.09375,12.5 11.25,11.65625 11.25,10.625 L11.25,9.375 C11.25,8.34375 12.09375,7.5 13.125,7.5 L18.125,7.5 C18.46875,7.5 18.75,7.78125 18.75,8.125 L18.75,11.875 C18.75,12.21875 18.46875,12.5 18.125,12.5 Z M13.125,8.75 C12.78125,8.75 12.5,9.03125 12.5,9.375 L12.5,10.625 C12.5,10.96875 12.78125,11.25 13.125,11.25 L17.5,11.25 L17.5,8.75 L13.125,8.75 Z" id="形状" fill="#666666"></path>
            </g>
        </g>
    </g>
</svg>