<?xml version="1.0" encoding="UTF-8"?>
<svg width="22px" height="22px" viewBox="0 0 22 22" version="1.1" xmlns="http://www.w3.org/2000/svg" xmlns:xlink="http://www.w3.org/1999/xlink">
    <!-- Generator: Sketch 63 (92445) - https://sketch.com -->
    <title>编组 3</title>
    <desc>Created with Sketch.</desc>
    <defs>
        <polygon id="path-1" points="0.0016097561 0.0214634146 21.978 0.0214634146 21.978 21.9999732 0.0016097561 21.9999732"></polygon>
        <polygon id="path-3" points="0.00146341463 0.0195121951 19.98 0.0195121951 19.98 19.9999756 0.00146341463 19.9999756"></polygon>
    </defs>
    <g id="页面-1" stroke="none" stroke-width="1" fill="none" fill-rule="evenodd">
        <g id="首页" transform="translate(-51.000000, -771.000000)">
            <g id="编组-5" transform="translate(0.000000, 763.000000)">
                <g id="编组-3" transform="translate(51.000000, 8.000000)">
                    <g id="shouyexianxing">
                        <mask id="mask-2" fill="white">
                            <use xlink:href="#path-1"></use>
                        </mask>
                        <g id="Clip-2"></g>
                        <path d="M12.0878463,0.0214634146 L9.89015366,0.0214634146 L0,10.4609732 C0,10.4609732 0.019397561,12.6587732 1.09895366,12.6587732 L2.74726341,12.6587732 L2.74726341,19.8021732 C2.74726341,21.9549268 4.94506341,21.9999732 4.94506341,21.9999732 L9.34066341,21.9999732 L9.34066341,14.3071098 C9.34066341,13.7566805 9.89015366,13.7577268 9.89015366,13.7577268 L12.0879537,13.7577268 C12.0879537,13.7577268 12.6374171,13.7759707 12.6374171,14.3071098 L12.6374171,21.9999732 L17.0330171,21.9999732 C19.2898146,21.9999732 19.2308171,19.8021732 19.2308171,19.8021732 L19.2308171,12.1093098 L20.8791537,12.1093098 C21.9437122,12.1093098 21.978,10.4610805 21.978,10.4610805 L12.0878463,0.0214634146 Z M19.7802,11.0104634 L18.6813537,11.0104634 C18.6813537,11.0104634 18.1318634,10.9879268 18.1318634,11.5599268 L18.1318634,19.8021732 C18.1318634,19.8021732 18.185522,20.9011268 17.0329098,20.9011268 L13.7362634,20.9011268 L13.7362634,13.7748171 C13.7362634,13.1792341 13.1353415,12.6587732 12.6030488,12.6587732 L9.30798537,12.6587732 C8.79978537,12.6587732 8.24170976,13.1717756 8.24170976,13.7051146 L8.24170976,20.9011268 L4.94506341,20.9011268 C4.94506341,20.9011268 3.84610976,20.9482927 3.84610976,19.8021732 L3.84610976,12.1093098 C3.84610976,11.5814171 3.29664634,11.5599268 3.29664634,11.5599268 L1.64833659,11.5599268 C1.64833659,11.5599268 1.09884634,11.5878024 1.09884634,11.0104634 C1.09884634,10.4330976 10.4395098,1.12041707 10.4395098,1.12041707 L11.5383561,1.12041707 L20.3296634,10.4610805 C20.3296634,10.4609732 20.2959122,11.0104634 19.7802,11.0104634 Z" id="Fill-1" fill="#000000" mask="url(#mask-2)"></path>
                    </g>
                    <g id="shouyexianxing备份" transform="translate(1.000000, 1.000000)">
                        <mask id="mask-4" fill="white">
                            <use xlink:href="#path-3"></use>
                        </mask>
                        <g id="Clip-2"></g>
                        <path d="M10.9889512,0.0195121951 L8.99104878,0.0195121951 L0,9.50997561 C0,9.50997561 0.0176341463,11.5079756 0.99904878,11.5079756 L2.4975122,11.5079756 L2.4975122,18.0019756 C2.4975122,19.9590244 4.4955122,19.9999756 4.4955122,19.9999756 L8.4915122,19.9999756 L8.4915122,13.0064634 C8.4915122,12.5060732 8.99104878,12.5070244 8.99104878,12.5070244 L10.9890488,12.5070244 C10.9890488,12.5070244 11.488561,12.5236098 11.488561,13.0064634 L11.488561,19.9999756 L15.484561,19.9999756 C17.5361951,19.9999756 17.482561,18.0019756 17.482561,18.0019756 L17.482561,11.0084634 L18.9810488,11.0084634 C19.9488293,11.0084634 19.98,9.51007317 19.98,9.51007317 L10.9889512,0.0195121951 Z M17.982,10.0095122 L16.9830488,10.0095122 C16.9830488,10.0095122 16.4835122,9.98902439 16.4835122,10.5090244 L16.4835122,18.0019756 C16.4835122,18.0019756 16.5322927,19.0010244 15.4844634,19.0010244 L12.4875122,19.0010244 L12.4875122,12.522561 C12.4875122,11.981122 11.9412195,11.5079756 11.4573171,11.5079756 L8.46180488,11.5079756 C7.99980488,11.5079756 7.49246341,11.9743415 7.49246341,12.4591951 L7.49246341,19.0010244 L4.4955122,19.0010244 C4.4955122,19.0010244 3.49646341,19.0439024 3.49646341,18.0019756 L3.49646341,11.0084634 C3.49646341,10.528561 2.99695122,10.5090244 2.99695122,10.5090244 L1.4984878,10.5090244 C1.4984878,10.5090244 0.99895122,10.5343659 0.99895122,10.0095122 C0.99895122,9.48463415 9.49046341,1.01856098 9.49046341,1.01856098 L10.4894146,1.01856098 L18.4815122,9.51007317 C18.4815122,9.50997561 18.4508293,10.0095122 17.982,10.0095122 Z" id="Fill-1" fill="#000000" mask="url(#mask-4)"></path>
                    </g>
                </g>
            </g>
        </g>
    </g>
</svg>